<svg width="655" height="242" viewBox="0 0 655 242" fill="none" xmlns="http://www.w3.org/2000/svg">
<path d="M653.849 68.3405C640.976 34.9979 612.672 9.84603 577.655 2.55737C536.253 -6.06356 493.607 9.8759 458.081 30.4992C440.144 40.9065 423.302 53.4346 408.006 67.4862C392.539 81.6991 379.068 97.8835 365.502 113.895C341.647 142.052 314.9 174.504 276.798 181.649C263.593 184.123 248.28 182.33 236.349 175.484C232.321 173.172 228.784 170.256 225.591 166.964C226.865 165.937 228.103 164.855 229.3 163.726C250.265 143.999 259.867 109.527 251.882 82.189C246.023 62.1451 227.706 45.3991 205.918 52.3652C198.306 54.8027 192.151 59.3253 187.359 65.0427C187.264 65.1562 187.151 65.2518 187.056 65.3653C182.003 50.2144 176.37 35.2667 169.628 20.7193C166.791 14.5956 158.053 13.0363 152.644 16.2266C146.418 19.9008 145.34 27.2074 148.19 33.3549C160.885 60.7472 169.468 89.848 176.938 119.092C179.024 130.503 182.738 141.95 187.424 152.554C187.436 152.572 187.441 152.596 187.447 152.614C187.216 152.572 186.991 152.501 186.76 152.453C173.52 150.021 161.797 141.143 152.224 132.116C138.794 119.439 126.022 106.098 108.553 99.1978C92.6234 92.9009 72.9915 92.7456 58.3239 102.49C44.302 111.804 35.8901 128.149 36.3818 145.128C37.3829 179.439 72.4465 202.177 103.95 189.553C113.701 185.646 122.089 179.558 129.446 172.037C140.672 160.548 123.132 142.834 111.894 154.329C106.053 160.309 99.2818 165.262 92.0606 167.233C88.2752 168.267 87.7065 168.279 83.2458 168.153C83.0799 168.153 82.3454 168.082 81.8596 168.046C81.3916 167.962 80.7163 167.849 80.5623 167.813C78.9273 167.418 77.3219 166.97 75.7402 166.379C75.5388 166.295 75.3492 166.212 75.2545 166.164C74.3955 165.722 73.5543 165.268 72.7249 164.766C72.0674 164.372 71.4335 163.941 70.7938 163.517C70.6397 163.416 70.6812 163.452 70.5983 163.404C70.5805 163.386 70.5983 163.398 70.5746 163.386C69.4016 162.388 68.3353 161.319 67.269 160.213C67.1683 160.106 66.7536 159.628 66.4515 159.287C66.1376 158.833 65.4504 157.901 65.3497 157.752C64.4315 156.324 63.614 154.825 62.909 153.277C62.8853 153.188 62.8616 153.104 62.8024 152.937C62.5595 152.19 62.3107 151.449 62.1034 150.69C61.9316 150.081 61.4695 147.781 61.3333 147.219C61.3037 146.753 61.2326 145.929 61.2326 145.744C61.2089 144.507 61.2029 143.282 61.2444 142.04C61.2503 141.884 61.3273 141.06 61.3688 140.558C61.4636 140.05 61.6235 139.16 61.6591 138.999C62.0501 137.332 62.4884 135.707 63.0571 134.094C63.1104 133.95 63.1282 133.885 63.1578 133.795C63.1875 133.735 63.1993 133.717 63.2348 133.634C63.5844 132.893 63.9635 132.17 64.3604 131.453C64.858 130.569 65.3852 129.709 65.9539 128.866C66.1909 128.514 66.2679 128.394 66.339 128.281C66.3034 128.358 66.3153 128.382 66.5937 128.072C67.6719 126.883 68.7796 125.748 70 124.696C70.0888 124.619 70.0473 124.648 70.1066 124.595C70.1954 124.541 70.1599 124.571 70.3435 124.451C71.0129 123.997 71.6883 123.555 72.3873 123.143C73.0922 122.731 73.809 122.348 74.5317 121.978C74.7569 121.864 74.8753 121.793 74.9523 121.745C75.1419 121.679 75.2841 121.637 75.5566 121.542C77.3752 120.908 79.2235 120.413 81.1132 120.048C81.1784 120.036 82.5764 119.839 84.4839 119.791C86.3677 119.743 88.2811 119.791 90.159 120.006C91.0654 120.114 93.2987 120.592 95.0877 121.058C97.1196 121.59 99.4003 122.277 101.166 123.011C108.411 126.016 114.749 131.095 120.555 136.376C134.399 148.958 146.94 163.201 164.232 171.117C175.955 176.481 189.183 179.289 201.76 177.497C210.586 188.711 221.913 197.284 235.615 202.565C271.911 216.557 310.517 200.671 338.999 177.467C371.817 150.732 394.476 113.763 425.547 85.1881C454.882 58.2021 491.954 35.9597 531.088 27.6196C564.309 20.54 598.063 28.9758 619.295 56.2007C622.961 60.9025 627.683 69.2247 629.91 74.9899C632.339 81.2868 638.239 85.6541 645.176 83.7303C651.136 82.0814 656.289 74.6673 653.843 68.3345M229.318 95.1353C229.448 96.4915 229.389 95.7566 229.318 95.1353ZM218.281 138.736C217.014 140.66 217.802 139.638 216.326 141.37C215.094 142.822 213.809 144.22 212.434 145.535C212.369 145.6 212.12 145.803 211.818 146.066C211.783 145.989 211.759 145.911 211.724 145.833C210.331 142.768 209.028 139.638 207.891 136.436C206.475 132.445 204.905 128.03 203.519 123.406C203.454 123.011 203.448 122.635 203.347 122.223C202.636 119.349 201.837 116.505 201.102 113.638C198.839 102.52 198.727 91.1564 205.077 82.3622C206.89 79.853 209.508 77.529 212.506 76.4058C214.982 75.4798 217.819 75.7307 219.419 76.5074C224.661 79.0524 227.292 85.654 228.672 91.712C228.897 92.6978 229.075 93.6835 229.258 94.6812C229.27 94.7589 229.288 94.9202 229.306 95.0815C229.46 96.7484 229.578 98.4152 229.614 100.088C229.685 103.278 229.418 108.165 229.128 110.214C228.382 115.544 225.633 125.126 223.518 129.494C221.966 132.702 220.23 135.767 218.275 138.742" fill="#8986C0"/>
<path d="M595.213 64.6777C572.525 64.6777 572.489 100.231 595.213 100.231C617.937 100.231 617.937 64.6777 595.213 64.6777Z" fill="#8986C0"/>
<path d="M315.049 207.703C293.486 207.703 293.45 241.5 315.049 241.5C336.647 241.5 336.647 207.703 315.049 207.703Z" fill="#8986C0"/>
<path d="M347.244 193.969C325.681 193.969 325.646 227.765 347.244 227.765C368.843 227.765 368.843 193.969 347.244 193.969Z" fill="#8986C0"/>
<path d="M15.3339 120.365C-5.02062 120.365 -5.05616 152.268 15.3339 152.268C35.724 152.268 35.724 120.365 15.3339 120.365Z" fill="#8986C0"/>
<path d="M24.6875 83.8203C4.3329 83.8203 4.29735 115.723 24.6875 115.723C45.0775 115.723 45.0775 83.8203 24.6875 83.8203Z" fill="#8986C0"/>
<g opacity="0.38">
<mask id="mask0_1031_705" style="mask-type:luminance" maskUnits="userSpaceOnUse" x="146" y="14" width="42" height="105">
<path d="M187.265 14.1006H146.604V118.077H187.265V14.1006Z" fill="white"/>
</mask>
<g mask="url(#mask0_1031_705)">
<mask id="mask1_1031_705" style="mask-type:luminance" maskUnits="userSpaceOnUse" x="146" y="14" width="42" height="105">
<path d="M187.261 64.5362C187.166 64.6438 187.054 64.7453 186.959 64.8529C181.906 49.702 176.272 34.7543 169.531 20.2068C166.693 14.0832 157.956 12.5298 152.547 15.7141C146.321 19.3884 145.243 26.6949 148.092 32.8425C160.716 60.0794 169.27 89.001 176.711 118.078C172.878 94.1031 181.556 74.2624 187.255 64.5302" fill="white"/>
</mask>
<g mask="url(#mask1_1031_705)">
<path d="M182.725 -0.619752L112.775 23.9189L149.787 131.226L219.736 106.687L182.725 -0.619752Z" fill="#8986C0"/>
</g>
</g>
</g>
<g opacity="0.41">
<mask id="mask2_1031_705" style="mask-type:luminance" maskUnits="userSpaceOnUse" x="175" y="51" width="43" height="103">
<path d="M217.281 51.3496H175.902V153.014H217.281V51.3496Z" fill="white"/>
</mask>
<g mask="url(#mask2_1031_705)">
<mask id="mask3_1031_705" style="mask-type:luminance" maskUnits="userSpaceOnUse" x="175" y="51" width="43" height="103">
<path d="M210.601 51.3497C209.067 51.6126 207.521 51.9591 205.951 52.4609C198.339 54.8985 192.184 59.427 187.385 65.1384C181.686 74.8706 173.008 94.7113 176.841 118.686C176.882 118.853 176.93 119.021 176.971 119.182C179.056 130.599 182.776 142.04 187.456 152.65C198.676 154.245 206.62 150.35 211.762 145.929C210.364 142.858 209.067 139.728 207.929 136.531C206.514 132.547 204.944 128.126 203.558 123.501C203.492 123.101 203.486 122.725 203.386 122.319C202.675 119.445 201.875 116.595 201.141 113.733C198.878 102.615 198.765 91.2521 205.116 82.458C206.928 79.9487 209.553 77.6307 212.544 76.5016C214.12 75.9101 215.82 75.8324 217.277 76.0296C215.607 67.803 213.213 59.5763 210.601 51.3438" fill="white"/>
</mask>
<g mask="url(#mask3_1031_705)">
<path d="M215.412 42.3734L152.492 55.6992L174.883 163.227L237.803 149.901L215.412 42.3734Z" fill="#8986C0"/>
</g>
</g>
</g>
<g opacity="0.41">
<mask id="mask4_1031_705" style="mask-type:luminance" maskUnits="userSpaceOnUse" x="201" y="106" width="189" height="102">
<path d="M389.378 106.928H201.768V207.995H389.378V106.928Z" fill="white"/>
</mask>
<g mask="url(#mask4_1031_705)">
<mask id="mask5_1031_705" style="mask-type:luminance" maskUnits="userSpaceOnUse" x="201" y="106" width="189" height="102">
<path d="M371.561 106.928C369.541 109.311 367.515 111.689 365.501 114.073C341.645 142.23 314.898 174.682 276.796 181.828C263.591 184.301 248.278 182.509 236.347 175.662C232.319 173.35 228.783 170.435 225.59 167.143C210.17 177.341 201.77 177.676 201.77 177.676C210.596 188.889 221.923 197.462 235.619 202.744C271.915 216.736 310.527 200.85 339.003 177.646C357.995 162.178 373.587 143.281 389.374 124.564C383.734 118.38 377.834 112.466 371.555 106.928" fill="white"/>
</mask>
<g mask="url(#mask5_1031_705)">
<path d="M389.38 106.928H201.77V216.742H389.38V106.928Z" fill="#8986C0"/>
</g>
</g>
</g>
</svg>
