<?xml version="1.0" encoding="UTF-8"?>
<svg id="Layer_1" data-name="Layer 1" xmlns="http://www.w3.org/2000/svg" xmlns:xlink="http://www.w3.org/1999/xlink" viewBox="0 0 512 431">
  <defs>
    <style>
      .cls-1 {
        fill: url(#linear-gradient-8);
      }

      .cls-2 {
        fill: url(#linear-gradient-7);
      }

      .cls-3 {
        fill: url(#linear-gradient-5);
      }

      .cls-4 {
        fill: url(#linear-gradient-6);
      }

      .cls-5 {
        fill: url(#linear-gradient-4);
      }

      .cls-6 {
        fill: url(#linear-gradient-3);
      }

      .cls-7 {
        fill: url(#linear-gradient-2);
      }

      .cls-8 {
        fill: url(#linear-gradient);
      }

      .cls-9 {
        fill: #1fa9e1;
      }

      .cls-10 {
        fill: #33b34a;
      }
    </style>
    <linearGradient id="linear-gradient" x1="164.26" y1="887.62" x2="151.21" y2="998.57" gradientTransform="translate(-1.5 -760.21)" gradientUnits="userSpaceOnUse">
      <stop offset="0" stop-color="#1fa9e1"/>
      <stop offset="1" stop-color="#2a3b8b"/>
    </linearGradient>
    <linearGradient id="linear-gradient-2" x1="41.87" y1="903.11" x2="239.02" y2="975.23" gradientTransform="translate(-1.5 -760.21)" gradientUnits="userSpaceOnUse">
      <stop offset=".18" stop-color="#1fa9e1"/>
      <stop offset=".7" stop-color="#1593d1"/>
    </linearGradient>
    <linearGradient id="linear-gradient-3" x1="120.24" y1="929.6" x2="189.41" y2="1077.18" gradientTransform="translate(-1.5 -760.21)" gradientUnits="userSpaceOnUse">
      <stop offset=".09" stop-color="#1fa9e1"/>
      <stop offset=".21" stop-color="#1498d5"/>
      <stop offset=".53" stop-color="#0b71b8"/>
      <stop offset=".78" stop-color="#0b58a3"/>
      <stop offset=".94" stop-color="#09509a"/>
    </linearGradient>
    <linearGradient id="linear-gradient-4" x1="125.44" y1="981.01" x2="190.71" y2="1004.94" gradientTransform="translate(-1.5 -760.21)" gradientUnits="userSpaceOnUse">
      <stop offset="0" stop-color="#1fa9e1"/>
      <stop offset="1" stop-color="#5ecbf5"/>
    </linearGradient>
    <linearGradient id="linear-gradient-5" x1="304.81" y1="1016.69" x2="296.02" y2="905.02" gradientTransform="translate(-1.5 -760.21)" gradientUnits="userSpaceOnUse">
      <stop offset="0" stop-color="#33b34a"/>
      <stop offset="1" stop-color="#025334"/>
    </linearGradient>
    <linearGradient id="linear-gradient-6" x1="460.59" y1="968.39" x2="296.06" y2="821.27" gradientTransform="translate(-1.5 -760.21)" gradientUnits="userSpaceOnUse">
      <stop offset="0" stop-color="#33b34a"/>
      <stop offset=".3" stop-color="#2eb14a"/>
      <stop offset=".54" stop-color="#21ab4b"/>
      <stop offset=".77" stop-color="#119e49"/>
      <stop offset=".9" stop-color="#089548"/>
    </linearGradient>
    <linearGradient id="linear-gradient-7" x1="375.92" y1="944.62" x2="282.28" y2="861.05" gradientTransform="translate(-1.5 -760.21)" gradientUnits="userSpaceOnUse">
      <stop offset="0" stop-color="#33b34a"/>
      <stop offset=".04" stop-color="#2daf4a"/>
      <stop offset=".36" stop-color="#188f46"/>
      <stop offset=".62" stop-color="#087a44"/>
      <stop offset=".8" stop-color="#087343"/>
    </linearGradient>
    <linearGradient id="linear-gradient-8" x1="303.84" y1="904.29" x2="422.95" y2="790.25" gradientTransform="translate(-1.5 -760.21)" gradientUnits="userSpaceOnUse">
      <stop offset=".5" stop-color="#33b34a"/>
      <stop offset=".64" stop-color="#2fb04a"/>
      <stop offset=".76" stop-color="#24a64a"/>
      <stop offset=".86" stop-color="#1c9547"/>
      <stop offset=".96" stop-color="#0f7f44"/>
      <stop offset="1" stop-color="#087343"/>
    </linearGradient>
  </defs>
  <path class="cls-9" d="M208.89,286.58C-83,231.29,60.22-26.15,223.39,131.58c2.72,1.81,0,6.35-2.72,4.53-14.64-6.23-30.33-9.62-46.23-9.97-77.05,0-71.61,106.96,36.26,154.1,2.72,2.72.91,7.25-1.81,6.35Z"/>
  <path class="cls-10" d="M205.26,390.83C479.02,205,346.67,17.36,245.15,128.86c-1.81,2.72-6.35,0-4.53-2.72,109.68-250.19,477.71,68.89-32.63,271.04-3.63,0-5.44-4.53-2.72-6.35Z"/>
  <path class="cls-8" d="M173.53,127.04c15.9.35,31.59,3.74,46.23,9.97,2.72.91,5.44-2.72,2.72-4.53-33.54-32.63-67.08-48.04-95.18-49.86-52.58,58.92-29.91,130.53,50.76,181.3-76.14-51.67-72.52-136.88-4.53-136.88Z"/>
  <path class="cls-7" d="M103.74,82.63c-34.21,4.82-60.54,32.66-63.45,67.08,19.04,71.61,89.74,119.65,171.32,135.06.78-1.68.05-3.67-1.63-4.45-.06-.03-.12-.05-.18-.08-2.5-1.02-4.93-2.24-7.25-3.63-106.06-31.73-179.48-106.06-98.81-193.99Z"/>
  <path class="cls-6" d="M128.21,81.72c-7.86-.62-15.77-.32-23.57.91-81.58,87.02-7.25,162.26,98.81,194.89-8.58-4.09-16.77-8.95-24.47-14.5h.91c-81.58-50.76-105.15-121.47-51.67-181.3Z"/>
  <path class="cls-5" d="M208.89,286.58c1.42-.03,2.75-.69,3.63-1.81-81.58-15.41-152.29-64.36-171.32-135.06-4.53,49.86,39.88,113.31,167.7,136.88Z"/>
  <path class="cls-3" d="M304.07,95.32c78.86-5.44,121.47,145.04-98.81,295.51-1.38,1-1.68,2.93-.68,4.3.77,1.07,2.14,1.52,3.4,1.13,62.46-23.22,121.11-55.61,174.04-96.09,3.63-6.35,6.35-13.6,9.97-20.85,49.86-106.06-18.13-191.27-87.93-184.01Z"/>
  <path class="cls-4" d="M458.17,94.41c-77.05-98.81-190.36-23.57-217.55,34.45h0c.91,1.81,2.72,1.81,4.53,0,2.79-3.24,5.82-6.27,9.06-9.06,33.54-34.45,67.99-53.48,108.78-40.79,44.42,14.5,89.74,65.27,92.46,133.25,21.76-45.32,19.04-86.12,2.72-117.84Z"/>
  <path class="cls-2" d="M392,279.33c-3.63,7.25-6.35,13.6-9.97,20.85h0c30.48-23.97,55.77-53.89,74.33-87.93-2.72-67.99-47.14-118.75-92.46-133.25-40.79-12.69-75.24,6.35-108.78,40.79,13.26-13.57,30.95-21.94,49.86-23.57,68.89-8.16,136.88,77.05,87.02,183.11Z"/>
  <path class="cls-1" d="M240.61,125.23c-.91.91,0,1.81,0,2.72,27.19-58.01,140.5-133.25,217.55-34.45C417.38,18.27,295.91-.77,240.61,125.23Z"/>
</svg>